# xmcd CD database file
#
# Track frame offsets:
#	150
#	19994
#	41737
#	53946
#	70377
#	86739
#	105280
#	131851
#	152847
#	167940
#	189243
#	201627
#	215476
#	234192
#
# Disc length: 3480 seconds
#
# Revision: 0
# Processed by: cddbd v1.5PL3 Copyright (c) Steve Scherf et al.
# Submitted via: CDex 1.51
#
DISCID=cb0d960e
DTITLE=DOCTOR BLUES - no pain no gain
DYEAR=2003
DGENRE=Blues
TTITLE0=You need a roadmap
TTITLE1=No pain no gain
TTITLE2=Can't take it no more
TTITLE3=Train of life
TTITLE4=Seven eleven
TTITLE5=Hart in hand
TTITLE6=Color of my blood
TTITLE7=Lost my heart, but got the blues
TTITLE8=Still got the juice
TTITLE9=My secret glow
TTITLE10=Lazy dazy crazy about you
TTITLE11=Walkin' on eggs
TTITLE12=El Salvador
TTITLE13=Dreams crumble into dust
EXTD=YEAR: 2003
EXTT0=
EXTT1=
EXTT2=
EXTT3=
EXTT4=
EXTT5=
EXTT6=
EXTT7=
EXTT8=
EXTT9=
EXTT10=
EXTT11=
EXTT12=
EXTT13=
PLAYORDER=
